<?xml version="1.0" encoding="utf-8"?>
<!-- Generator: Adobe Illustrator 19.1.0, SVG Export Plug-In . SVG Version: 6.00 Build 0)  -->
<svg version="1.1" id="Layer_1" xmlns="http://www.w3.org/2000/svg" xmlns:xlink="http://www.w3.org/1999/xlink" x="0px" y="0px"
	 viewBox="-547.9 358.1 52.8 52.8" style="enable-background:new -547.9 358.1 52.8 52.8;" xml:space="preserve">
<style type="text/css">
	.st0{fill:#38F9D4;}
</style>
<path class="st0" d="M-515.8,371l-12,19v0l0,6.9h-5.6l-1.3,1h7l7.1-3.4h0l12-19L-515.8,371z M-521.6,394.3l-5.3,2.5v-5.9
	L-521.6,394.3z M-511.5,378.8l-9.4,14.9l-5.9-3.7l9.4-14.9L-511.5,378.8z M-509.6,375.9l-1.4,2.2l-5.9-3.7l1.4-2.2L-509.6,375.9z"/>
<g>
	<path class="st0" d="M-521.5,410.9c-14.6,0-26.4-11.8-26.4-26.4c0-14.6,11.8-26.4,26.4-26.4c14.6,0,26.4,11.8,26.4,26.4
		C-495.2,399.1-507,410.9-521.5,410.9z M-521.5,358.4c-14.4,0-26.1,11.7-26.1,26.1c0,14.4,11.7,26.1,26.1,26.1
		c14.4,0,26.1-11.7,26.1-26.1C-495.4,370.1-507.1,358.4-521.5,358.4z"/>
</g>
</svg>
