<?xml version="1.0" encoding="utf-8"?>
<!-- Generator: Adobe Illustrator 19.1.0, SVG Export Plug-In . SVG Version: 6.00 Build 0)  -->
<svg version="1.1" id="Layer_1" xmlns="http://www.w3.org/2000/svg" xmlns:xlink="http://www.w3.org/1999/xlink" x="0px" y="0px"
	 viewBox="-649 651 300 300" style="enable-background:new -649 651 300 300;" xml:space="preserve">
<style type="text/css">
	.st0{fill:#38F9D4;}
	.st1{fill:#0FCCA7;}
</style>
<polygon class="st0" points="-432.3,744.8 -565.7,825 -565.7,857.2 -432.3,776.6 "/>
<polygon class="st1" points="-439.9,781.2 -470.2,767.6 -558.7,820.8 -528.5,834.7 "/>
<path class="st0" d="M-432.3,872.5l27.2,11.7v-31.7v-16.2v-31.7v-47.5l-27.2-12.4V792l-133.4-61.7v-0.2l-27.2-12.4v32.5v15.4v32.5
	v47.4l27.2,11.7v-46.6L-432.3,872.5z M-432.3,840l-133.4-61.7v-15.6l133.4,61.2V840z"/>
<path class="st0" d="M-349,951h-300V651h300V951z M-638.4,940.3h278.7V661.7h-278.7V940.3z"/>
</svg>
