<?xml version="1.0" encoding="utf-8"?>
<!-- Generator: Adobe Illustrator 19.1.0, SVG Export Plug-In . SVG Version: 6.00 Build 0)  -->
<svg version="1.1" id="Layer_1" xmlns="http://www.w3.org/2000/svg" xmlns:xlink="http://www.w3.org/1999/xlink" x="0px" y="0px"
	 viewBox="-562.6 355.8 52.8 52.8" style="enable-background:new -562.6 355.8 52.8 52.8;" xml:space="preserve">
<style type="text/css">
	.st0{fill:#38F9D4;}
</style>
<g>
	<g>
		<path class="st0" d="M-529.4,393.2h-13.7v-21.9h13.8L-529.4,393.2L-529.4,393.2z M-542.3,392.4h12.2V372h-12.2V392.4z"/>
	</g>
	<g>
		<path class="st0" d="M-534.7,373.7h-3.1c-0.2,0-0.4-0.1-0.4-0.4l0,0c0-0.2,0.1-0.4,0.4-0.4h3.1c0.2,0,0.4,0.1,0.4,0.4l0,0
			C-534.3,373.5-534.5,373.7-534.7,373.7z"/>
	</g>
	<g>
		<circle class="st0" cx="-536.2" cy="390.2" r="0.9"/>
	</g>
</g>
<g>
	<path class="st0" d="M-536.2,408.6c-14.6,0-26.4-11.8-26.4-26.4c0-14.6,11.8-26.4,26.4-26.4c14.6,0,26.4,11.8,26.4,26.4
		C-509.8,396.8-521.6,408.6-536.2,408.6z M-536.2,356.1c-14.4,0-26.1,11.7-26.1,26.1c0,14.4,11.7,26.1,26.1,26.1
		c14.4,0,26.1-11.7,26.1-26.1C-510,367.8-521.8,356.1-536.2,356.1z"/>
</g>
</svg>
