<?xml version="1.0" encoding="utf-8"?>
<!-- Generator: Adobe Illustrator 19.1.0, SVG Export Plug-In . SVG Version: 6.00 Build 0)  -->
<svg version="1.1" id="Layer_1" xmlns="http://www.w3.org/2000/svg" xmlns:xlink="http://www.w3.org/1999/xlink" x="0px" y="0px"
	 viewBox="-544.5 358.2 52.8 52.8" style="enable-background:new -544.5 358.2 52.8 52.8;" xml:space="preserve">
<style type="text/css">
	.st0{fill:#38F9D4;}
</style>
<g>
	<g>
		<path class="st0" d="M-506.6,393.8h-23v-18.5h23V393.8z M-528.7,392.9h21.1v-16.6h-21.1V392.9z"/>
	</g>
	<g>
		<rect x="-529.2" y="380.7" class="st0" width="22" height="0.9"/>
	</g>
	<g>
		<circle class="st0" cx="-525.5" cy="378.6" r="0.9"/>
	</g>
	<g>
		<circle class="st0" cx="-522.8" cy="378.6" r="0.9"/>
	</g>
	<g>
		<circle class="st0" cx="-520" cy="378.6" r="0.9"/>
	</g>
</g>
<g>
	<path class="st0" d="M-518.1,411c-14.6,0-26.4-11.8-26.4-26.4c0-14.6,11.8-26.4,26.4-26.4c14.6,0,26.4,11.8,26.4,26.4
		C-491.8,399.2-503.6,411-518.1,411z M-518.1,358.5c-14.4,0-26.1,11.7-26.1,26.1s11.7,26.1,26.1,26.1c14.4,0,26.1-11.7,26.1-26.1
		S-503.7,358.5-518.1,358.5z"/>
</g>
</svg>
